HIERARCHY
ROOT Hips
{
    OFFSET 0.000000 0.000000 0.000000
    CHANNELS 6 Xposition Yposition Zposition Zrotation Xrotation Yrotation
    JOINT Spine
    {
        OFFSET -0.000000 7.246840 0.000000
        CHANNELS 3 Zrotation Xrotation Yrotation
        JOINT Spine1
        {
            OFFSET -0.000000 20.289354 0.000000
            CHANNELS 3 Zrotation Xrotation Yrotation
            JOINT Neck
            {
                OFFSET -0.000000 20.206032 1.836912
                CHANNELS 3 Zrotation Xrotation Yrotation
                JOINT Head
                {
                    OFFSET -0.000000 12.372654 -1.767522
                    CHANNELS 3 Zrotation Xrotation Yrotation
                    End Site
                    {
                        OFFSET -0.000000 22.094025 0.000000
                    }
                }
            }
            JOINT LeftShoulder
            {
                OFFSET 3.465871 17.201674 -0.568930
                CHANNELS 3 Zrotation Xrotation Yrotation
                JOINT LeftArm
                {
                    OFFSET 14.070313 0.000000 0.000000
                    CHANNELS 3 Zrotation Xrotation Yrotation
                    JOINT LeftForeArm
                    {
                        OFFSET 26.549477 0.000000 0.000000
                        CHANNELS 3 Zrotation Xrotation Yrotation
                        JOINT LeftHand
                        {
                            OFFSET 18.880413 0.000000 0.000000
                            CHANNELS 3 Zrotation Xrotation Yrotation
                            End Site
                            {
                                OFFSET 13.256415 0.000000 0.000000
                            }
                        }
                    }
                }
            }
            JOINT RightShoulder
            {
                OFFSET -3.526370 17.201674 -0.568930
                CHANNELS 3 Zrotation Xrotation Yrotation
                JOINT RightArm
                {
                    OFFSET -14.070313 0.000000 0.000000
                    CHANNELS 3 Zrotation Xrotation Yrotation
                    JOINT RightForeArm
                    {
                        OFFSET -26.549477 0.000000 0.000000
                        CHANNELS 3 Zrotation Xrotation Yrotation
                        JOINT RightHand
                        {
                            OFFSET -18.880413 0.000000 0.000000
                            CHANNELS 3 Zrotation Xrotation Yrotation
                            End Site
                            {
                                OFFSET -13.256415 0.000000 0.000000
                            }
                        }
                    }
                }
            }
        }
    }
    JOINT LeftUpLeg
    {
        OFFSET 8.837609 0.000000 0.000000
        CHANNELS 3 Zrotation Xrotation Yrotation
        JOINT LeftLeg
        {
            OFFSET -0.000000 -41.345005 0.000000
            CHANNELS 3 Zrotation Xrotation Yrotation
            JOINT LeftFoot
            {
                OFFSET -0.000000 -35.500874 0.000000
                CHANNELS 3 Zrotation Xrotation Yrotation
                JOINT LeftToeBase
                {
                    OFFSET -0.000000 -5.744446 13.256415
                    CHANNELS 3 Zrotation Xrotation Yrotation
                    End Site
                    {
                        OFFSET -0.000000 0.000000 3.535044
                    }
                }
            }
        }
    }
    JOINT RightUpLeg
    {
        OFFSET -8.837609 0.000000 0.000000
        CHANNELS 3 Zrotation Xrotation Yrotation
        JOINT RightLeg
        {
            OFFSET -0.000000 -41.345005 0.000000
            CHANNELS 3 Zrotation Xrotation Yrotation
            JOINT RightFoot
            {
                OFFSET -0.000000 -35.500874 0.000000
                CHANNELS 3 Zrotation Xrotation Yrotation
                JOINT RightToeBase
                {
                    OFFSET -0.000000 -5.744446 13.256415
                    CHANNELS 3 Zrotation Xrotation Yrotation
                    End Site
                    {
                        OFFSET -0.000000 0.000000 3.535044
                    }
                }
            }
        }
    }
}
MOTION
Frames:    12
Frame Time:    0.010000
7.669641    77.218727    48.317574    -4.078153    4.750596    136.536407    -16.164713    5.935190    -12.307042    11.629679    0.864708    -13.238635    6.844569    27.536394    -26.514471    32.639050    -31.206989    -13.633926    13.275868    -2.739635    2.938588    -46.179707    57.097271    -49.458721    5.789387    -20.845770    -42.497967    -57.403271    -11.465567    -13.659125    -8.314683    5.419310    1.136890    50.865482    4.985885    2.244955    -1.204737    -33.140110    59.144962    1.771640    -32.401001    12.666656    9.654366    -33.012527    2.486197    -168.286453    78.628365    146.522690    -2.064318    -4.022755    6.498094    -2.766119    -12.802642    4.224647    7.833703    -16.123184    16.988583    -13.169335    45.388458    18.578566    -0.757527    -12.961151    -2.440586    -2.977228    -10.158890    6.032564    
7.496152    77.557312    47.858490    -4.253905    5.294339    134.122772    -16.154449    5.760470    -12.228954    11.263888    0.314135    -13.078082    7.069260    28.147051    -27.688967    32.264626    -31.465916    -14.902921    13.531331    -2.984368    2.909531    -46.846031    55.788784    -47.323437    5.356023    -20.428677    -44.899139    -58.318729    -11.332913    -12.927316    -8.857929    5.285047    0.752319    49.302696    5.121200    2.053982    -2.930094    -33.044785    59.885380    2.745271    -31.373346    12.004442    9.588076    -33.905674    1.949827    -170.284256    77.430099    148.216736    3.826256    -1.089864    7.388626    -2.830276    -16.375635    4.450322    7.150591    -15.484975    18.630947    -12.541708    44.568378    18.485020    -0.969683    -12.626712    -2.318637    -3.070153    -9.960580    6.203891    
7.352392    77.949287    47.375500    -4.383195    5.879745    131.803391    -16.181345    5.565422    -12.193531    10.950069    -0.121465    -12.973609    7.163629    28.614992    -28.725149    31.830864    -31.454021    -16.150822    14.092498    -3.123810    2.707191    -47.059067    54.821747    -45.692207    4.936929    -20.541210    -47.026016    -59.109997    -11.566147    -12.630719    -9.281502    5.283359    0.499494    47.469101    5.217315    2.001531    -4.400530    -32.887363    60.291042    4.518085    -30.289236    12.490435    9.356590    -34.644760    1.469440    -172.567780    76.380569    150.588287    3.532651    -1.371018    7.615816    -2.120991    -16.658178    3.343547    6.388829    -14.814654    20.037043    -12.009941    43.639256    18.397678    -0.919047    -12.119375    -2.053674    -3.177220    -9.836494    6.409170    
7.205187    78.394249    46.885170    -4.505309    6.452723    129.477005    -16.195480    5.377826    -12.154724    10.747309    -0.464653    -12.876694    7.192477    28.700533    -29.636354    31.182032    -31.340601    -17.418900    14.781957    -2.945067    2.453609    -46.563927    54.019943    -44.886360    4.677514    -21.051615    -48.655487    -60.050056    -11.770151    -13.026166    -9.958014    5.202145    0.098606    45.931122    4.949142    2.355899    -5.795681    -32.290314    60.393856    6.037360    -28.826330    12.252115    9.006074    -35.256119    1.057770    -174.584045    75.507668    152.902420    0.584892    -3.489979    7.227599    -1.856337    -14.201515    2.867231    5.561643    -14.179072    21.727102    -11.176859    42.597736    17.366446    -0.669214    -11.356364    -1.245663    -3.280987    -9.982872    6.631223    
7.048918    78.907265    46.334641    -4.581472    7.044353    127.313499    -16.063761    5.247753    -12.221726    10.441022    -0.899100    -12.880547    6.771787    28.596395    -30.377687    30.643967    -30.427309    -18.743149    15.420398    -3.077151    2.407672    -46.281853    53.825836    -43.790188    4.109278    -21.936655    -49.966412    -60.866928    -12.247503    -13.925085    -10.717712    4.660787    0.128850    44.751766    5.749661    2.117620    -7.460248    -32.779926    60.242645    8.374393    -28.260235    12.434114    8.303750    -35.732891    0.391709    -176.336670    74.758507    154.721878    0.485118    -3.779358    7.615570    -1.868421    -13.537747    2.870588    4.519533    -13.569762    23.232309    -10.056070    41.539646    16.640556    -0.718376    -10.629441    -1.054919    -3.487275    -10.084389    7.057068    
6.880130    79.497147    45.785667    -4.676584    7.624380    125.120621    -15.892596    5.160548    -12.290213    10.093026    -1.481221    -12.880186    6.877989    29.269506    -31.096828    30.508417    -30.883871    -19.383684    16.307882    -1.845255    1.903554    -46.193169    52.565208    -43.043858    3.292648    -22.876740    -51.221336    -61.409767    -13.173307    -14.444186    -11.467542    4.168367    0.185528    43.546349    6.761086    2.279682    -8.878172    -32.904560    59.494053    10.457307    -27.511318    12.611915    7.534680    -36.068527    -0.279060    -176.973389    74.324165    156.842850    -0.860506    -4.583614    6.627508    -2.122797    -11.730427    3.215755    3.356226    -12.999680    24.421652    -9.098545    40.182091    16.332106    -1.198369    -9.667548    -0.732584    -3.467614    -10.148327    7.023440    
6.789656    80.129021    45.250694    -4.692876    8.172289    122.762581    -15.784495    4.940535    -12.285118    9.880871    -1.902837    -12.805872    7.204042    29.642092    -31.808054    29.525188    -31.164469    -20.402937    17.249485    0.040029    1.551265    -45.904564    51.385223    -42.819477    3.136616    -23.765831    -52.236210    -61.848392    -13.865465    -14.805101    -12.354300    3.566523    0.355777    42.825607    6.822964    2.137275    -9.137622    -32.203075    59.971958    11.652375    -26.535368    11.930815    6.902929    -36.161407    -0.641416    -177.993896    73.921478    157.056564    -1.539927    -5.298927    7.580439    -1.892267    -11.839499    2.869006    2.368200    -12.332132    25.512037    -8.559619    38.594425    16.231047    -1.055731    -8.612293    -0.250385    -3.449064    -10.338058    7.003987    
6.675480    80.833305    44.667072    -4.730569    8.736915    120.558891    -15.536417    4.677572    -12.365118    9.483848    -2.291915    -12.813382    7.145979    30.070318    -32.343838    29.098354    -31.137094    -21.133867    17.494459    -3.391882    3.097062    -47.084789    54.804070    -39.676125    2.707686    -24.313021    -52.510361    -62.194649    -14.574427    -14.818979    -13.026131    3.194571    0.519680    42.316437    7.110950    2.195495    -9.646360    -31.747498    60.451847    12.847190    -25.683229    11.360266    5.863673    -36.163445    -1.246777    -178.693192    73.831818    157.701172    -1.796929    -5.476203    8.085380    -1.878749    -11.770993    2.847026    1.111406    -11.633733    26.359791    -7.815439    36.583122    15.003884    -1.008857    -7.186097    1.232368    -3.558796    -10.720695    7.264351    
6.574642    81.617836    44.060379    -4.714347    9.324409    118.287521    -15.247435    4.360540    -12.392522    9.039273    -2.544252    -12.775271    6.943685    30.593695    -32.803387    29.024471    -31.090778    -21.657686    17.952919    -3.767999    3.406634    -48.226563    55.795456    -37.426220    3.219327    -24.911293    -52.870163    -62.935963    -14.959259    -14.598830    -13.693089    2.758196    0.643953    42.029144    7.855101    2.619414    -10.412849    -31.482595    60.378548    14.066951    -24.951550    10.823784    4.692430    -35.913139    -1.893345    -178.714188    74.142647    158.222153    -1.155812    -4.799004    7.956685    -2.152296    -12.884154    3.289597    -0.231786    -10.970691    26.528669    -7.359383    34.481144    15.060283    -0.585385    -5.548474    1.772255    -3.794345    -11.491258    7.827463    
6.523369    82.479713    43.452309    -4.578033    9.979024    115.807655    -15.030268    4.048033    -12.301001    8.625656    -2.711237    -12.630696    6.815598    30.895113    -33.099518    28.533958    -30.868801    -22.227182    18.113466    -2.126196    3.050306    -48.798050    54.664604    -36.122257    3.481295    -24.963764    -53.354908    -63.642490    -15.197372    -13.868258    -14.148194    2.515096    0.940128    41.849945    8.799237    3.049834    -11.575943    -31.438858    60.139790    15.338483    -24.247931    10.438011    3.534164    -35.237904    -2.371733    -178.188843    74.937378    158.315201    -1.899473    -4.913644    7.578067    -2.152593    -12.383088    3.277252    -1.641174    -10.204844    26.635208    -6.869274    32.176811    15.242735    -1.267944    -3.911117    2.529440    -3.697525    -11.704939    7.651172    
6.494480    83.403397    42.824394    -4.364359    10.630593    113.205978    -14.730838    3.737633    -12.160132    8.110417    -2.866943    -12.440103    6.505557    31.339287    -33.296173    28.445864    -30.526022    -22.574738    18.066675    -0.600537    3.059563    -49.335564    53.647972    -35.092197    4.236894    -24.134825    -52.895172    -64.435928    -14.163203    -13.345266    -14.419843    2.325244    1.392352    41.721382    8.808814    3.441780    -11.823482    -30.552662    60.486523    16.594440    -23.067249    10.061852    2.315608    -34.265743    -2.582692    -177.875107    76.218872    158.679642    -2.507977    -4.916529    6.983409    -2.240906    -12.761057    3.421692    -3.168826    -9.364058    27.670086    -5.675742    29.640684    13.914119    -1.112870    -1.860170    3.459217    -3.845947    -12.261864    8.020822    
6.511013    84.389076    42.186039    -4.014769    11.273467    110.367325    -14.378855    3.437634    -11.900385    7.576357    -2.969561    -12.137430    6.101080    31.659050    -33.510094    28.180012    -29.883347    -23.111267    17.829538    0.830783    3.260069    -49.812157    52.959778    -34.186951    3.893627    -24.204063    -52.752399    -64.792480    -14.959912    -12.371431    -14.578365    2.076273    1.942954    41.916576    9.435509    3.755722    -12.522883    -30.105558    60.525322    17.874578    -22.129789    9.824118    1.206419    -32.917515    -2.770887    -175.911804    77.908836    156.158005    -3.011524    -5.229340    7.612212    -2.389812    -12.394373    3.638597    -4.707606    -8.532298    27.999403    -4.754434    26.972492    13.316855    -0.460279    0.429268    4.336066    -4.092968    -12.597992    8.575925    
